<svg xmlns="http://www.w3.org/2000/svg" width="102" height="99" fill="none"><path fill="#fff" d="M79.32 43 47.65 11.32A5.92 5.92 0 0 1 45.8 6.8a6.5 6.5 0 0 1 2.02-4.52A6.82 6.82 0 0 1 52.34.42a5.92 5.92 0 0 1 4.52 1.86l42.65 42.65c.65.65 1.1 1.35 1.37 2.1s.4 1.56.4 2.42c0 .86-.13 1.67-.4 2.43a5.67 5.67 0 0 1-1.37 2.1L56.86 96.63a6.03 6.03 0 0 1-4.44 1.77c-1.78 0-3.31-.59-4.6-1.77a6.29 6.29 0 0 1-1.94-4.6c0-1.79.64-3.32 1.94-4.61l31.5-31.5H7.1a6.25 6.25 0 0 1-4.6-1.86 6.25 6.25 0 0 1-1.87-4.6c0-1.84.62-3.37 1.86-4.61a6.25 6.25 0 0 1 4.6-1.86h72.22Z"/></svg>