<svg xmlns="http://www.w3.org/2000/svg" width="39" height="38" fill="none"><g fill="#000" clip-path="url(#a)"><path d="M19.5 14.42a4.58 4.58 0 1 0 0 9.16 4.58 4.58 0 0 0 0-9.16Z"/><path d="M24.89 7.33H14.1a6.29 6.29 0 0 0-6.28 6.28v10.78a6.29 6.29 0 0 0 6.28 6.28H24.9a6.29 6.29 0 0 0 6.28-6.28V13.6a6.29 6.29 0 0 0-6.28-6.28ZM19.5 26a7 7 0 1 1 0-14 7 7 0 0 1 0 14Zm7.7-12.94a1.73 1.73 0 1 1 0-3.46 1.73 1.73 0 0 1 0 3.46Z"/><path d="M38.46 8.88c0-.68-.06-1.36-.18-2.04a8.31 8.31 0 0 0-.78-2.37A8.22 8.22 0 0 0 32.47.4a13.84 13.84 0 0 0-3.66-.4H10.18V0c-.7.02-1.4.01-2.1.1-.75.08-1.5.25-2.23.5A7.87 7.87 0 0 0 2.9 2.55 7.84 7.84 0 0 0 .9 6C.58 7.2.51 8.41.51 9.63L.5 28.34c.02.84.03 1.7.17 2.53.15.89.37 1.75.78 2.56a8.19 8.19 0 0 0 4.57 4c1.22.4 2.48.55 3.76.56l2.4.02c5.78-.02 11.58.04 17.37-.03.77-.02 1.53-.1 2.28-.25a7.72 7.72 0 0 0 3.82-1.86 7.92 7.92 0 0 0 2.52-4.2c.26-1.1.32-2.21.33-3.33v-.22l-.04-19.24Zm-4.87 15.5a8.71 8.71 0 0 1-8.7 8.7H14.1a8.71 8.71 0 0 1-8.7-8.7V13.62a8.71 8.71 0 0 1 8.7-8.7H24.9a8.71 8.71 0 0 1 8.7 8.7v10.78Z"/></g><defs><clipPath id="a"><path fill="#fff" d="M.5 0h38v38H.5z"/></clipPath></defs></svg>