<svg xmlns="http://www.w3.org/2000/svg" width="42" height="43" fill="none"><path fill="#000" d="M33.487 42.23c-3.525 0-5.61-2.682-5.61-7.25 0-5.39 2.72-7.2 6.027-7.2 1.374 0 2.776.312 3.638.776v5.363h-.17c-.17-3.941-1.725-5.808-3.553-5.808-2.256 0-3.554 2.606-3.554 7.116 0 4.254 1.175 6.68 3.241 6.68.89 0 2.103-.54 2.103-2.34v-2.094c0-1.488-.464-2.113-1.61-2.113v-.18h4.652v.18c-.673 0-.966.625-.966 2.113v3.354c-.74.654-2.568 1.402-4.198 1.402ZM8.92 14.45c-2.208 0-3.885-1.475-3.895-3.711-.01-1.697.926-2.603 1.9-2.603.742 0 1.32.51 1.32 1.32 0 .82-.578 1.321-2.005 1.283l-.916-.03c.125 1.65 1.408 2.459 2.7 2.459 1.83 0 2.824-1.205 2.824-3.2V2.333c0-1.523-.492-2.15-1.735-2.15V0h5.63v.183c-1.167 0-1.63.627-1.63 2.15v7.413c0 2.911-1.62 4.704-4.193 4.704Z"/><path fill="#000" d="M21 .204s0 12.684 4.157 16.842C29.315 21.204 42 21.204 42 21.204s-12.684 0-16.842 4.157C21 29.52 21 42.203 21 42.203s0-12.684-4.158-16.842C12.684 21.204 0 21.204 0 21.204s12.684 0 16.842-4.158C21 12.888 21 .204 21 .204Z"/></svg>