<svg xmlns="http://www.w3.org/2000/svg" width="38" height="38" fill="none"><g clip-path="url(#a)"><path fill="#000" d="M30.08 0H7.92A7.92 7.92 0 0 0 0 7.92v22.16A7.92 7.92 0 0 0 7.92 38h22.16A7.92 7.92 0 0 0 38 30.08V7.92A7.92 7.92 0 0 0 30.08 0ZM12.67 30.08H7.92V12.67h4.75v17.41Zm-2.38-19.42a2.78 2.78 0 0 1-2.77-2.8c0-1.54 1.24-2.79 2.77-2.79a2.78 2.78 0 0 1 2.77 2.8c0 1.54-1.24 2.79-2.77 2.79Zm21.38 19.42h-4.75v-8.87c0-5.33-6.34-4.93-6.34 0v8.87h-4.75V12.67h4.75v2.8a6.02 6.02 0 0 1 11.09 3.91v10.7Z"/></g><defs><clipPath id="a"><path fill="#fff" d="M0 0h38v38H0z"/></clipPath></defs></svg>